<svg width="24" height="24" viewBox="0 0 24 24" fill="none" xmlns="http://www.w3.org/2000/svg">
<path d="M10.1333 0H0.888889C0.4 0 0 0.4 0 0.888889V10.1333C0 10.6222 0.4 11.0222 0.888889 11.0222H10.1333C10.6222 11.0222 11.0222 10.6222 11.0222 10.1333V0.888889C11.0222 0.4 10.6222 0 10.1333 0ZM9.24445 9.24445H1.77778V1.77778H9.24445V9.24445Z" fill="#5B6A72"/>
<path d="M23.1109 0H13.8664C13.3775 0 12.9775 0.4 12.9775 0.888889V10.1333C12.9775 10.6222 13.3775 11.0222 13.8664 11.0222H23.1109C23.5998 11.0222 23.9998 10.6222 23.9998 10.1333V0.888889C23.9998 0.4 23.5998 0 23.1109 0ZM22.222 9.24445H14.7553V1.77778H22.222V9.24445Z" fill="#5B6A72"/>
<path d="M10.1333 12.9771H0.888889C0.4 12.9771 0 13.3771 0 13.8659V23.1104C0 23.5993 0.4 23.9993 0.888889 23.9993H10.1333C10.6222 23.9993 11.0222 23.5993 11.0222 23.1104V13.8659C11.0222 13.3771 10.6222 12.9771 10.1333 12.9771ZM9.24445 22.2215H1.77778V14.7548H9.24445V22.2215Z" fill="#5B6A72"/>
<path d="M23.1109 12.9771H13.8664C13.3775 12.9771 12.9775 13.3771 12.9775 13.8659V23.1104C12.9775 23.5993 13.3775 23.9993 13.8664 23.9993H23.1109C23.5998 23.9993 23.9998 23.5993 23.9998 23.1104V13.8659C23.9998 13.3771 23.5998 12.9771 23.1109 12.9771ZM22.222 22.2215H14.7553V14.7548H22.222V22.2215Z" fill="#5B6A72"/>
</svg>
