<svg width="18" height="24" viewBox="0 0 18 24" fill="none" xmlns="http://www.w3.org/2000/svg">
<path d="M13.5 15C12.6 15 11.775 15.225 11.025 15.75H9.75V13.425C13.125 13.05 15.75 10.2 15.75 6.75C15.75 3 12.75 0 9 0C5.25 0 2.25 3 2.25 6.75C2.25 10.2 4.875 13.05 8.25 13.425V15.75H6.975C6.225 15.225 5.4 15 4.5 15C2.025 15 0 17.025 0 19.5C0 21.975 2.025 24 4.5 24C5.4 24 6.225 23.775 6.975 23.25H11.025C11.775 23.775 12.6 24 13.5 24C15.975 24 18 21.975 18 19.5C18 17.025 15.975 15 13.5 15ZM6 20.25H5.25V21C5.25 21.45 4.95 21.75 4.5 21.75C4.05 21.75 3.75 21.45 3.75 21V20.25H3C2.55 20.25 2.25 19.95 2.25 19.5C2.25 19.05 2.55 18.75 3 18.75H3.75V18C3.75 17.55 4.05 17.25 4.5 17.25C4.95 17.25 5.25 17.55 5.25 18V18.75H6C6.45 18.75 6.75 19.05 6.75 19.5C6.75 19.95 6.45 20.25 6 20.25ZM14.175 6H12.45C12.375 4.5 12.075 3.225 11.625 2.25C12.975 3 13.95 4.425 14.175 6ZM12.525 7.5H14.25C14.025 9.075 13.05 10.5 11.7 11.25C12.15 10.275 12.45 9 12.525 7.5ZM9 1.5C9.75 1.5 10.8 3.225 11.025 6H7.05C7.2 3.225 8.25 1.5 9 1.5ZM3.825 7.5H5.55C5.625 9 5.925 10.275 6.375 11.25C5.025 10.5 4.05 9.075 3.825 7.5ZM5.475 6H3.825C4.05 4.425 5.025 3 6.375 2.25C5.85 3.225 5.55 4.5 5.475 6ZM9 12C8.25 12 7.2 10.275 6.975 7.5H10.95C10.8 10.275 9.75 12 9 12ZM13.425 20.55C13.425 20.625 13.35 20.7 13.275 20.775C13.2 20.85 13.125 20.925 13.05 20.925C12.975 20.925 12.825 21 12.75 21C12.525 21 12.375 20.925 12.225 20.775C12.15 20.7 12.075 20.625 12.075 20.55C12.075 20.475 12 20.325 12 20.25C12 20.175 12 20.025 12.075 19.95C12.075 19.875 12.15 19.8 12.225 19.725C12.3 19.65 12.375 19.575 12.45 19.575C12.75 19.425 13.05 19.5 13.275 19.725C13.35 19.8 13.425 19.875 13.425 19.95C13.425 20.025 13.5 20.175 13.5 20.25C13.5 20.325 13.5 20.475 13.425 20.55ZM14.775 19.275C14.625 19.425 14.475 19.5 14.25 19.5C14.175 19.5 14.025 19.5 13.95 19.425C13.875 19.35 13.8 19.35 13.725 19.275C13.575 19.125 13.5 18.975 13.5 18.75C13.5 18.675 13.5 18.525 13.575 18.45C13.575 18.375 13.65 18.3 13.725 18.225C13.8 18.15 13.875 18.075 13.95 18.075C14.1 18 14.325 18 14.55 18.075C14.625 18.075 14.7 18.15 14.775 18.225C14.85 18.3 14.925 18.375 14.925 18.45C14.925 18.525 15 18.675 15 18.75C15 18.975 14.925 19.125 14.775 19.275Z" fill="white"/>
</svg>
