<svg width="16" height="16" viewBox="0 0 16 16" fill="none" xmlns="http://www.w3.org/2000/svg">
<path d="M15.5792 11.6581C15.2031 11.1519 14.6113 10.7022 13.9129 10.3916C12.217 9.63755 10.6109 9.38711 9.49002 9.31648C9.42012 8.90767 9.20715 8.54252 8.8818 8.2793C8.67409 8.11124 8.43515 7.99696 8.18178 7.94039L8.18243 0.990594C8.18243 0.899313 8.14331 0.812438 8.07496 0.751907C8.00662 0.691407 7.91565 0.663189 7.82503 0.67422C7.82162 0.674626 7.47834 0.716501 6.93084 0.774313C5.91703 0.881376 5.26025 2.26619 5.43566 3.92699C5.63056 5.7729 6.2169 7.28924 6.71615 8.2952C6.29365 8.64814 6.04847 9.19836 6.1105 9.78576C6.12256 9.89989 6.1459 10.0101 6.17887 10.1157L0.159384 13.5903C0.0803531 13.6359 0.0246344 13.7133 0.00641571 13.8027C-0.011803 13.8922 0.00919696 13.9851 0.0641031 14.058C0.0661656 14.0607 0.273759 14.3367 0.597915 14.7823C0.864227 15.1485 1.31348 15.3277 1.8491 15.3276C2.51947 15.3276 3.32507 15.0469 4.07581 14.5009C5.57694 13.4091 6.59697 12.1432 7.2185 11.2079C7.40312 11.2763 7.60156 11.3137 7.80693 11.3137C7.86659 11.3137 7.92684 11.3106 7.98746 11.3042C8.4164 11.2589 8.79149 11.0572 9.06284 10.7623L15.0826 14.2386C15.1316 14.2669 15.1866 14.2813 15.242 14.2813C15.2759 14.2813 15.3101 14.2759 15.343 14.2649C15.4296 14.2359 15.4996 14.1713 15.5353 14.0873C15.5366 14.0841 15.672 13.7659 15.8957 13.2629C16.1071 12.7873 15.9948 12.2173 15.5792 11.6581ZM3.70088 13.9854C3.16997 14.3715 2.59166 14.6173 2.07244 14.6775C1.62551 14.7293 1.27591 14.6309 1.11338 14.4074C0.985226 14.2312 0.874945 14.0811 0.788039 13.9634L6.48018 10.6778C6.53862 10.75 6.6025 10.8175 6.67159 10.8791C6.07919 11.7661 5.11428 12.9574 3.70088 13.9854ZM6.06953 3.86006C6.00059 3.20725 6.07687 2.5835 6.28434 2.10375C6.46293 1.69078 6.72297 1.43725 6.99778 1.40822C7.21446 1.38534 7.39962 1.36491 7.54496 1.3485L7.54434 7.91999C7.45121 7.93449 7.361 7.95667 7.274 7.98533C6.80209 7.02877 6.25303 5.59771 6.06953 3.86006ZM7.92043 10.6703C7.8824 10.6743 7.84474 10.6763 7.80734 10.6763C7.26756 10.6763 6.80228 10.2674 6.74437 9.71889C6.68243 9.13236 7.10925 8.60477 7.69584 8.5428C7.73412 8.53874 7.77224 8.53674 7.81018 8.53674C8.05399 8.53674 8.28871 8.61942 8.48093 8.77492C8.70306 8.95461 8.84193 9.21008 8.87196 9.4942C8.93387 10.0808 8.50702 10.6083 7.92043 10.6703ZM15.3132 13.0039C15.2247 13.203 15.1498 13.3736 15.0914 13.5077L9.40002 10.221C9.4334 10.135 9.46005 10.0461 9.47918 9.95455C10.5435 10.0241 12.0574 10.2642 13.654 10.9741C14.2538 11.2408 14.7558 11.6188 15.0676 12.0383C15.336 12.3994 15.4255 12.7514 15.3132 13.0039Z" fill="white"/>
</svg>
