<svg width="17" height="17" viewBox="0 0 17 17" fill="none" xmlns="http://www.w3.org/2000/svg">
<path d="M10.0909 8.63669L16.321 2.40641C16.7264 2.00115 16.7264 1.34591 16.321 0.940659C15.9157 0.535405 15.2605 0.535405 14.8552 0.940659L8.62492 7.17094L2.39483 0.940659C1.98939 0.535405 1.33434 0.535405 0.929083 0.940659C0.523639 1.34591 0.523639 2.00115 0.929083 2.40641L7.15917 8.63669L0.929083 14.867C0.523639 15.2722 0.523639 15.9275 0.929083 16.3327C1.13105 16.5349 1.3966 16.6364 1.66196 16.6364C1.92732 16.6364 2.19268 16.5349 2.39483 16.3327L8.62492 10.1024L14.8552 16.3327C15.0574 16.5349 15.3227 16.6364 15.5881 16.6364C15.8534 16.6364 16.1188 16.5349 16.321 16.3327C16.7264 15.9275 16.7264 15.2722 16.321 14.867L10.0909 8.63669Z" fill="#E74C3C"/>
</svg>
