<svg width="24" height="22" viewBox="0 0 24 22" fill="none" xmlns="http://www.w3.org/2000/svg">
<path d="M12 6.35938C8.76914 6.35938 6.14062 8.98789 6.14062 12.2188C6.14062 15.4496 8.76914 18.0781 12 18.0781C15.2309 18.0781 17.8594 15.4496 17.8594 12.2188C17.8594 8.98789 15.2309 6.35938 12 6.35938ZM12 16.2031C9.80302 16.2031 8.01562 14.4157 8.01562 12.2188C8.01562 10.0218 9.80302 8.23438 12 8.23438C14.197 8.23438 15.9844 10.0218 15.9844 12.2188C15.9844 14.4157 14.197 16.2031 12 16.2031Z" fill="#F25822"/>
<path d="M21.1875 3.54688H17.7387C17.6295 3.54688 17.5311 3.4873 17.4805 3.39092L16.5263 1.38594C16.5237 1.38045 16.5211 1.37502 16.5183 1.36958C16.149 0.630828 15.4064 0.171875 14.5804 0.171875H9.48638C8.66039 0.171875 7.9178 0.630828 7.54847 1.36962C7.5457 1.37506 7.54308 1.3805 7.54045 1.38598L6.58627 3.39106C6.53564 3.4873 6.4373 3.54688 6.32812 3.54688H2.8125C1.26169 3.54688 0 4.80856 0 6.35938V19.0156C0 20.5664 1.26169 21.8281 2.8125 21.8281H21.1875C22.7383 21.8281 24 20.5664 24 19.0156V6.35938C24 4.80856 22.7383 3.54688 21.1875 3.54688ZM22.125 19.0156C22.125 19.5325 21.7044 19.9531 21.1875 19.9531H2.8125C2.29556 19.9531 1.875 19.5325 1.875 19.0156V6.35938C1.875 5.84244 2.29556 5.42188 2.8125 5.42188H6.32812C7.15406 5.42188 7.89666 4.96297 8.26603 4.22422C8.2688 4.21878 8.27142 4.2133 8.27409 4.20781L9.22828 2.20273C9.27886 2.10645 9.3772 2.04688 9.48638 2.04688H14.5804C14.6896 2.04688 14.7879 2.10645 14.8385 2.20269L15.7927 4.20777C15.7954 4.21325 15.798 4.21873 15.8008 4.22417C16.1701 4.96292 16.9127 5.42183 17.7387 5.42183H21.1875C21.7044 5.42183 22.125 5.84239 22.125 6.35933V19.0156Z" fill="#F25822"/>
<path d="M20.25 7.29688H18.375V9.17188H20.25V7.29688Z" fill="#F25822"/>
</svg>
