<svg width="21" height="21" viewBox="0 0 21 21" fill="none" xmlns="http://www.w3.org/2000/svg">
<path d="M19.4051 7.06075C19.4706 6.70999 19.5037 6.35396 19.5041 5.99714C19.5001 2.68317 16.8104 -8.86405e-05 13.4964 0.00391071C10.9737 0.00694319 8.72227 1.58757 7.86245 3.95927C6.32297 3.34645 4.57815 4.09762 3.96528 5.63711C3.91223 5.77037 3.86881 5.90722 3.83537 6.04667C1.37721 6.41431 -0.31746 8.70506 0.0501734 11.1632C0.379878 13.3678 2.27381 14.9989 4.50291 14.9979H8.2532C8.66747 14.9979 9.00328 14.6621 9.00328 14.2479C9.00328 13.8336 8.66747 13.4978 8.2532 13.4978H4.50291C2.8459 13.4978 1.50264 12.1545 1.50264 10.4975C1.50264 8.84051 2.8459 7.49725 4.50291 7.49725C4.91717 7.49725 5.25298 7.16144 5.25298 6.74718C5.25435 5.91869 5.92707 5.24816 6.75555 5.24953C7.14736 5.25019 7.52339 5.4041 7.80317 5.67834C8.0982 5.9691 8.57311 5.96563 8.86387 5.6706C8.97304 5.55981 9.04508 5.41785 9.06999 5.26429C9.47714 2.81489 11.7928 1.15933 14.2422 1.56647C16.6916 1.97362 18.3472 4.28929 17.94 6.73869C17.9158 6.88474 17.8843 7.0295 17.8457 7.17243C17.7595 7.48552 17.8845 7.81852 18.1555 7.99748C19.5362 8.9136 19.9128 10.7756 18.9967 12.1563C18.4422 12.992 17.5068 13.4953 16.5039 13.4977H14.2537C13.8394 13.4977 13.5036 13.8335 13.5036 14.2478C13.5036 14.662 13.8394 14.9978 14.2537 14.9978H16.5039C18.9894 14.9955 21.0024 12.9787 21 10.4932C20.9988 9.1703 20.4155 7.9149 19.4051 7.06075Z" fill="white"/>
<path d="M15.5171 15.9666C15.2264 15.6859 14.7656 15.6859 14.4749 15.9666L12.0035 18.4366V7.49617C12.0035 7.08191 11.6677 6.74609 11.2534 6.74609C10.8391 6.74609 10.5033 7.08191 10.5033 7.49617V18.4366L8.03334 15.9666C7.73537 15.6788 7.26054 15.6871 6.97277 15.985C6.69202 16.2757 6.69202 16.7365 6.97277 17.0272L10.7231 20.7775C11.0156 21.0707 11.4905 21.0713 11.7838 20.7788C11.7843 20.7783 11.7847 20.7779 11.7852 20.7775L15.5355 17.0272C15.8233 16.7292 15.815 16.2544 15.5171 15.9666Z" fill="white"/>
</svg>
