<svg width="24" height="24" viewBox="0 0 24 24" fill="none" xmlns="http://www.w3.org/2000/svg">
<path d="M17.25 10.5C16.275 10.5 15.375 10.725 14.55 11.25H9.45C8.625 10.725 7.725 10.5 6.75 10.5C3.825 10.5 1.5 12.825 1.5 15.75C1.5 18.675 3.825 21 6.75 21C7.725 21 8.625 20.775 9.45 20.25H14.55C15.375 20.775 16.275 21 17.25 21C20.175 21 22.5 18.675 22.5 15.75C22.5 12.825 20.175 10.5 17.25 10.5ZM8.25 16.5H7.5V17.25C7.5 17.7 7.2 18 6.75 18C6.3 18 6 17.7 6 17.25V16.5H5.25C4.8 16.5 4.5 16.2 4.5 15.75C4.5 15.3 4.8 15 5.25 15H6V14.25C6 13.8 6.3 13.5 6.75 13.5C7.2 13.5 7.5 13.8 7.5 14.25V15H8.25C8.7 15 9 15.3 9 15.75C9 16.2 8.7 16.5 8.25 16.5ZM16.575 13.95C16.575 13.875 16.65 13.8 16.725 13.725C16.875 13.575 17.175 13.5 17.4 13.5C17.475 13.5 17.475 13.5 17.55 13.575C17.625 13.575 17.625 13.65 17.7 13.65C17.7 13.65 17.775 13.725 17.85 13.725C18 13.875 18.075 14.025 18.075 14.25C18.075 14.325 18.075 14.325 18.075 14.4C18.075 14.475 18.075 14.475 18 14.55C18 14.625 18 14.625 17.925 14.7L17.85 14.775C17.85 14.775 17.775 14.85 17.7 14.85C17.625 14.85 17.625 14.925 17.55 14.925C17.475 14.925 17.475 14.925 17.4 15C17.325 15 17.325 15 17.25 15C17.025 15 16.875 14.925 16.725 14.775C16.725 14.7 16.65 14.7 16.65 14.7C16.65 14.625 16.575 14.625 16.575 14.55C16.575 14.475 16.575 14.475 16.5 14.4C16.5 14.325 16.5 14.325 16.5 14.25C16.5 14.175 16.5 14.025 16.575 13.95ZM16.275 16.275C16.125 16.425 15.975 16.5 15.75 16.5C15.675 16.5 15.525 16.5 15.45 16.425C15.375 16.35 15.3 16.35 15.225 16.275C15.15 16.2 15.075 16.125 15.075 16.05C15 15.975 15 15.825 15 15.75C15 15.525 15.075 15.375 15.225 15.225C15.3 15.15 15.375 15.075 15.45 15.075C15.75 14.925 16.05 15 16.275 15.225C16.425 15.375 16.5 15.525 16.5 15.75C16.5 15.825 16.5 15.975 16.425 16.05C16.35 16.125 16.35 16.2 16.275 16.275ZM17.925 17.55C17.925 17.625 17.85 17.7 17.775 17.775C17.775 17.775 17.7 17.85 17.625 17.85C17.55 17.85 17.55 17.925 17.475 17.925C17.4 17.925 17.4 17.925 17.325 18C17.25 18 17.25 18 17.175 18C16.95 18 16.8 17.925 16.65 17.775C16.575 17.7 16.5 17.625 16.5 17.55C16.5 17.475 16.5 17.325 16.5 17.25C16.5 17.175 16.5 17.175 16.5 17.1C16.5 17.025 16.5 17.025 16.575 16.95C16.575 16.875 16.575 16.875 16.65 16.8C16.65 16.725 16.725 16.725 16.725 16.725C17.025 16.425 17.475 16.425 17.775 16.725L17.85 16.8C17.85 16.875 17.925 16.875 17.925 16.95C17.925 17.025 17.925 17.025 18 17.1C18 17.175 18 17.175 18 17.25C18 17.325 18 17.475 17.925 17.55ZM19.5 15.9C19.5 15.975 19.5 15.975 19.425 16.05C19.425 16.125 19.425 16.125 19.35 16.2L19.275 16.275C19.2 16.35 19.125 16.425 19.05 16.425C18.975 16.5 18.825 16.5 18.75 16.5C18.675 16.5 18.675 16.5 18.6 16.5C18.525 16.5 18.525 16.5 18.45 16.425C18.375 16.425 18.375 16.35 18.3 16.35L18.225 16.275C18.075 16.125 18 15.975 18 15.75C18 15.525 18.075 15.375 18.225 15.225C18.45 15 18.75 14.925 19.05 15.075C19.125 15.15 19.2 15.15 19.275 15.225L19.35 15.3C19.35 15.375 19.425 15.375 19.425 15.45C19.425 15.525 19.425 15.525 19.5 15.6C19.5 15.675 19.5 15.675 19.5 15.75C19.5 15.825 19.5 15.825 19.5 15.9Z" fill="white"/>
<path d="M7.80006 4.50039C10.5751 3.52539 13.5001 3.52539 16.2001 4.50039C16.2751 4.50039 16.3501 4.50039 16.4251 4.50039C16.7251 4.50039 17.0251 4.27539 17.1001 3.97539C17.2501 3.60039 17.0251 3.15039 16.6501 3.00039C13.5751 1.95039 10.3501 1.95039 7.27506 3.00039C6.90006 3.22539 6.67506 3.60039 6.82506 4.05039C6.97506 4.42539 7.42506 4.65039 7.80006 4.50039Z" fill="white"/>
<path d="M15.225 7.275C15.525 7.275 15.825 7.05 15.9 6.75C16.05 6.375 15.825 5.925 15.45 5.775C13.2 4.95 10.8 4.95 8.54996 5.775C8.17496 5.925 7.94996 6.375 8.09996 6.75C8.24996 7.125 8.69996 7.35 9.07496 7.2C11.025 6.525 13.05 6.525 15 7.2C15.075 7.275 15.15 7.275 15.225 7.275Z" fill="white"/>
<path d="M9.74991 8.62422C9.37491 8.77422 9.14991 9.22422 9.29991 9.59922C9.44991 9.97422 9.89991 10.1992 10.2749 10.0492C11.3999 9.67422 12.5999 9.67422 13.7249 10.0492C13.7999 10.0492 13.8749 10.1242 13.9499 10.1242C14.2499 10.1242 14.5499 9.89922 14.6249 9.59922C14.7749 9.22422 14.5499 8.77422 14.1749 8.62422C12.7499 8.09922 11.2499 8.09922 9.74991 8.62422Z" fill="white"/>
</svg>
