<svg width="24" height="24" viewBox="0 0 24 24" fill="none" xmlns="http://www.w3.org/2000/svg">
<path d="M5.58313 23.042C5.44205 23.042 5.30053 23.0348 5.15945 23.0206C4.0029 22.9032 2.9428 22.2988 2.17478 21.3191C1.16696 20.033 0.737877 18.2378 0.997492 16.3934C1.45227 13.162 3.89022 10.8164 6.79467 10.8164C7.1291 10.8164 7.38917 11.0515 7.66501 11.3005C7.88136 11.4961 8.15044 11.7395 8.33929 11.7395H15.6585C15.8501 11.7395 16.121 11.495 16.3387 11.2987C16.6132 11.0506 16.8728 10.8164 17.2059 10.8164C20.1099 10.8164 22.5478 13.162 23.003 16.3934V16.3936C23.2627 18.238 22.8331 20.0337 21.8253 21.3196C21.0573 22.299 19.9976 22.9032 18.8411 23.0206C17.0423 23.2022 15.2349 22.2046 14.0815 20.4003H9.91862C8.85582 22.063 7.24133 23.042 5.58313 23.042ZM6.7505 11.7397C4.33057 11.7638 2.29918 13.7677 1.91155 16.5221C1.68665 18.1192 2.04722 19.66 2.90134 20.7496C3.52198 21.5413 4.33508 22.0089 5.2523 22.102C6.76492 22.2559 8.30323 21.3371 9.26237 19.7051L9.39623 19.4772H14.6039L14.7377 19.7051C15.6969 21.3374 17.2356 22.2595 18.7482 22.102C19.6655 22.0089 20.4781 21.5415 21.0988 20.7501C21.9529 19.6605 22.3139 18.1194 22.089 16.5221C21.7009 13.7677 19.67 11.764 17.2505 11.7397C17.1824 11.7805 17.0486 11.9013 16.9571 11.9838C16.6398 12.2702 16.2053 12.6626 15.6585 12.6626H8.33929C7.79527 12.6626 7.3797 12.2871 7.04572 11.9854C6.95377 11.9022 6.81901 11.7805 6.7505 11.7397Z" fill="black" stroke="white"/>
<path d="M10.0908 8.04185L11.9999 9.95093L13.909 8.04185C12.8558 6.98866 11.144 6.98866 10.0908 8.04185Z" fill="#00DF76"/>
<path d="M7.54541 5.49506L8.81815 6.76777C10.5745 5.01141 13.4254 5.01141 15.1818 6.76777L16.4545 5.49506C13.995 3.0355 10.005 3.0355 7.54541 5.49506Z" fill="#00DF76"/>
<path d="M5 2.95022L6.27274 4.22295C9.43548 1.06021 14.5646 1.06021 17.7273 4.22295L19 2.95022C15.1341 -0.915697 8.86591 -0.915697 5 2.95022Z" fill="#F25822"/>
<path d="M17.5383 13.6934H16.6152V15.0805H17.5383V13.6934Z" fill="black" stroke="#F25822"/>
<path d="M17.5383 18.7793H16.6152V20.1664H17.5383V18.7793Z" fill="black" stroke="#F25822"/>
<path d="M20.308 16.4688H18.9233V17.3918H20.308V16.4688Z" fill="black" stroke="#F25822"/>
<path d="M15.2308 16.4688H13.8462V17.3918H15.2308V16.4688Z" fill="black" stroke="#F25822"/>
<path d="M6.92308 14.6172H6V19.2405H6.92308V14.6172Z" fill="black" stroke="#F25822"/>
<path d="M8.76919 16.4668H4.15381V17.3899H8.76919V16.4668Z" fill="black" stroke="#F25822"/>
</svg>
