<svg width="24" height="24" viewBox="0 0 24 24" fill="none" xmlns="http://www.w3.org/2000/svg">
<path d="M0.413818 13.2415H2.56549C3.13092 17.5102 6.48981 20.8691 10.7585 21.4345V23.5862C10.7593 23.8145 10.9442 23.9993 11.1724 24H12.8276C13.0558 23.9993 13.2407 23.8145 13.2415 23.5862V21.4345C17.5102 20.8691 20.8691 17.5102 21.4345 13.2415H23.5862C23.8145 13.2407 23.9993 13.0558 24 12.8276V11.1724C23.9993 10.9442 23.8145 10.7593 23.5862 10.7585H21.4345C20.8691 6.48981 17.5102 3.13092 13.2415 2.56549V0.413818C13.2407 0.185486 13.0558 0.000732422 12.8276 0H11.1724C10.9442 0.000732422 10.7593 0.185486 10.7585 0.413818V2.56549C6.48981 3.13092 3.13092 6.48981 2.56549 10.7585H0.413818C0.185486 10.7593 0.000732422 10.9442 0 11.1724V12.8276C0.000732422 13.0558 0.185486 13.2407 0.413818 13.2415ZM12 4.96545C15.8849 4.96545 19.0345 8.11505 19.0345 12C19.0345 15.8849 15.8849 19.0345 12 19.0345C8.11505 19.0345 4.96545 15.8849 4.96545 12C4.97095 8.11725 8.11725 4.97095 12 4.96545Z" fill="white"/>
<path d="M15.3102 11.9998C15.3102 13.8281 13.8281 15.3102 11.9998 15.3102C10.1715 15.3102 8.68945 13.8281 8.68945 11.9998C8.68945 10.1715 10.1715 8.68945 11.9998 8.68945C13.8281 8.68945 15.3102 10.1715 15.3102 11.9998Z" fill="#00DF76"/>
</svg>
