<svg width="14" height="16" viewBox="0 0 14 16" fill="none" xmlns="http://www.w3.org/2000/svg">
<path d="M6.07273 0H1.07297C0.796831 0 0.572998 0.223833 0.572998 0.499976V15.4992C0.572998 15.7754 0.796831 15.9992 1.07297 15.9992H6.07273C6.34887 15.9992 6.5727 15.7754 6.5727 15.4992V0.499976C6.5727 0.223833 6.34884 0 6.07273 0ZM5.57275 14.9993H1.57295V13.4993H4.07283V12.4994H1.57295V10.9995H3.07288V9.99951H1.57295V8.49958H4.07283V7.49963H1.57295V5.99971H3.07288V4.99976H1.57295V3.49983H4.07283V2.49988H1.57295V0.999951H5.57275V14.9993Z" fill="white"/>
<path d="M12.7223 12.6498L11.0724 14.2947V1.70532L12.7173 3.35024L13.4223 2.64528L10.9224 0.145399C10.7274 -0.0484664 10.4124 -0.0484664 10.2174 0.145399L7.71753 2.64528L8.42249 3.35024L10.0724 1.70532V14.2947L8.42749 12.6498L7.72253 13.3548L10.2224 15.8546C10.4174 16.0485 10.7324 16.0485 10.9274 15.8546L13.4272 13.3548L12.7223 12.6498Z" fill="white"/>
</svg>
