<svg width="21" height="21" viewBox="0 0 21 21" fill="none" xmlns="http://www.w3.org/2000/svg">
<path d="M20.1113 0.0344569L0.466469 6.45361C-0.0883271 6.6349 -0.168558 7.38953 0.336365 7.6831L7.76032 12C7.99454 12.1362 8.28726 12.1198 8.50471 11.9583L10.5916 10.4084L9.04181 12.4954C8.88033 12.7129 8.8639 13.0056 9.00006 13.2398L13.317 20.6637C13.6109 21.1691 14.3653 21.088 14.5465 20.5336L20.9657 0.888837C21.1378 0.361348 20.6362 -0.137181 20.1113 0.0344569ZM13.7282 18.6757L10.3956 12.9447L14.4141 7.53365C14.6143 7.26396 14.5867 6.88829 14.3492 6.65078C14.1117 6.41326 13.736 6.38566 13.4663 6.58592L8.05533 10.6044L2.3243 7.27183L19.2632 1.73687L13.7282 18.6757ZM7.11251 14.8455L2.61461 19.3434C2.35008 19.6078 1.92116 19.6079 1.65663 19.3434C1.39206 19.0788 1.39206 18.6499 1.65663 18.3854L6.15453 13.8875C6.41914 13.623 6.84807 13.6229 7.11251 13.8875C7.37708 14.152 7.37708 14.581 7.11251 14.8455ZM1.17042 15.0157C0.905852 14.7511 0.905852 14.3222 1.17042 14.0577L2.94523 12.2829C3.20976 12.0183 3.63868 12.0183 3.90321 12.2829C4.16778 12.5474 4.16778 12.9763 3.90321 13.2408L2.1284 15.0157C1.86392 15.2802 1.43495 15.2802 1.17042 15.0157ZM8.71716 17.0968C8.98173 17.3613 8.98173 17.7902 8.71716 18.0548L6.94231 19.8296C6.81005 19.9619 6.63667 20.028 6.46334 20.028C5.86523 20.028 5.55642 19.2995 5.98437 18.8716L7.75922 17.0968C8.02371 16.8322 8.45263 16.8322 8.71716 17.0968Z" fill="white"/>
</svg>
