<svg width="16" height="16" viewBox="0 0 16 16" fill="none" xmlns="http://www.w3.org/2000/svg">
<path d="M16 6.25172C16 6.66516 15.6634 7.00172 15.25 7.00172H14.75C14.3366 7.00172 14 6.66516 14 6.25172C14 5.42453 13.3272 4.75172 12.5 4.75172H3.60344L4.25 5.39828C4.445 5.59297 4.445 5.91047 4.25 6.10516L3.60344 6.75172C3.40875 6.94672 3.09125 6.94672 2.89656 6.75172L0.073125 3.92859C-0.024375 3.83078 -0.024375 3.67266 0.073125 3.57484L2.89656 0.751719C3.09125 0.556719 3.40875 0.556719 3.60344 0.751719L4.25 1.39828C4.445 1.59297 4.445 1.91047 4.25 2.10516L3.60344 2.75172H12.5C14.43 2.75172 16 4.32172 16 6.25172Z" fill="#C8EFFD"/>
<path d="M3.24984 1.39828C3.44484 1.59297 3.44484 1.91047 3.24984 2.10516L2.60327 2.75172H3.60328L4.24984 2.10516C4.44484 1.91047 4.44484 1.59297 4.24984 1.39828L3.60328 0.751719C3.40859 0.556719 3.09109 0.556719 2.8964 0.751719L2.74983 0.89825L3.24984 1.39828Z" fill="#A0E1FD"/>
<path d="M3.60328 4.75H2.60327L3.24984 5.39656C3.44484 5.59125 3.44484 5.90875 3.24984 6.10344L2.74983 6.60344L2.8964 6.75001C3.09109 6.94501 3.40859 6.94501 3.60328 6.75001L4.24984 6.10344C4.44484 5.90875 4.44484 5.59125 4.24984 5.39656L3.60328 4.75Z" fill="#A0E1FD"/>
<path d="M12.5 2.75H11.5C13.43 2.75 15 4.32 15 6.25C15 6.57581 14.7909 6.85372 14.5 6.95697C14.6608 7.01403 14.7465 7 15.25 7C15.6634 7 16 6.66344 16 6.25C16 4.32 14.43 2.75 12.5 2.75Z" fill="#A0E1FD"/>
<path d="M15.9269 12.4269L13.1034 15.25C12.9084 15.445 12.5916 15.445 12.3966 15.25L11.75 14.6035C11.5546 14.4081 11.5543 14.0923 11.75 13.8966L12.3966 13.25H3.5C1.57 13.25 0 11.68 0 9.75C0 9.33656 0.336563 9 0.75 9H1.25C1.66344 9 2 9.33656 2 9.75C2 10.5772 2.67281 11.25 3.5 11.25H12.3966L11.75 10.6034C11.5546 10.4081 11.5543 10.0923 11.75 9.89656L12.3966 9.25C12.5916 9.055 12.9087 9.055 13.1034 9.25L15.9269 12.0731C16.0244 12.1709 16.0244 12.3291 15.9269 12.4269Z" fill="#7ACEF9"/>
<path d="M1 9.75137C1 10.5786 1.67281 11.2514 2.5 11.2514H3.5C2.67281 11.2514 2 10.5786 2 9.75137C2 9.33793 1.66344 9.00136 1.25 9.00136C0.732844 9.00136 0.658688 8.98808 0.5 9.0444C0.790938 9.14762 1 9.42555 1 9.75137Z" fill="#6CB9E7"/>
<path d="M15.9269 12.0748L13.1034 9.25172C12.9087 9.05672 12.5916 9.05672 12.3966 9.25172L12.25 9.39828L14.9269 12.0748C15.0244 12.1727 15.0244 12.3308 14.9269 12.4286L12.25 15.1052C12.4055 15.2606 12.5104 15.398 12.75 15.398C12.8781 15.398 13.0059 15.3492 13.1034 15.2517L15.9269 12.4286C16.0244 12.3308 16.0244 12.1727 15.9269 12.0748Z" fill="#6CB9E7"/>
</svg>
