<svg width="16" height="16" viewBox="0 0 16 16" fill="none" xmlns="http://www.w3.org/2000/svg">
<path d="M9.46586 8.01169L15.696 1.78141C16.1014 1.37615 16.1014 0.720913 15.696 0.315659C15.2907 -0.0895947 14.6355 -0.0895947 14.2302 0.315659L7.99992 6.54594L1.76983 0.315659C1.36439 -0.0895947 0.709337 -0.0895947 0.304083 0.315659C-0.101361 0.720913 -0.101361 1.37615 0.304083 1.78141L6.53417 8.01169L0.304083 14.242C-0.101361 14.6472 -0.101361 15.3025 0.304083 15.7077C0.506046 15.9099 0.771596 16.0114 1.03696 16.0114C1.30232 16.0114 1.56768 15.9099 1.76983 15.7077L7.99992 9.47744L14.2302 15.7077C14.4324 15.9099 14.6977 16.0114 14.9631 16.0114C15.2284 16.0114 15.4938 15.9099 15.696 15.7077C16.1014 15.3025 16.1014 14.6472 15.696 14.242L9.46586 8.01169Z" fill="white"/>
</svg>
