<svg width="20" height="20" viewBox="0 0 20 20" fill="none" xmlns="http://www.w3.org/2000/svg">
<g clip-path="url(#clip0)">
<path d="M9.99974 13.7051C9.44061 13.7051 8.97192 14.1738 8.97192 14.7329C8.97192 15.292 9.44061 15.7607 9.99974 15.7607C10.5383 15.7607 11.0276 15.292 11.0029 14.7576C11.0276 14.1697 10.563 13.7051 9.99974 13.7051Z" fill="white"/>
<path d="M19.5133 17.3479C20.1588 16.2337 20.1629 14.9058 19.5215 13.7957L13.0832 2.64584C12.446 1.52345 11.2948 0.857422 10.0039 0.857422C8.71291 0.857422 7.56175 1.52757 6.92449 2.64173L0.477959 13.8039C-0.163405 14.9263 -0.159294 16.2625 0.490293 17.3767C1.13166 18.4785 2.27871 19.1404 3.56144 19.1404H16.4216C17.7085 19.1404 18.8637 18.4703 19.5133 17.3479ZM18.1155 16.5421C17.7578 17.1588 17.1247 17.5247 16.4175 17.5247H3.55733C2.85841 17.5247 2.22938 17.167 1.87992 16.5626C1.52634 15.95 1.52223 15.2182 1.8758 14.6015L8.32234 3.44344C8.6718 2.83085 9.29672 2.46906 10.0039 2.46906C10.7069 2.46906 11.3359 2.83496 11.6854 3.44755L18.1278 14.6056C18.4732 15.2059 18.469 15.9295 18.1155 16.5421Z" fill="white"/>
<path d="M9.74465 6.48995C9.25541 6.62974 8.95117 7.07376 8.95117 7.61234C8.97584 7.93714 8.9964 8.26604 9.02106 8.59083C9.09096 9.82834 9.16085 11.0412 9.23074 12.2787C9.25541 12.698 9.5802 13.0023 9.99956 13.0023C10.4189 13.0023 10.7478 12.6775 10.7684 12.254C10.7684 11.9991 10.7684 11.7648 10.793 11.5058C10.8383 10.7123 10.8876 9.91879 10.9328 9.1253C10.9575 8.61139 11.0027 8.09748 11.0274 7.58356C11.0274 7.39855 11.0027 7.2341 10.9328 7.06965C10.7231 6.60918 10.2339 6.37484 9.74465 6.48995Z" fill="white"/>
</g>
<defs>
<clipPath id="clip0">
<rect width="20" height="20" fill="white"/>
</clipPath>
</defs>
</svg>
