<svg width="16" height="16" viewBox="0 0 16 16" fill="none" xmlns="http://www.w3.org/2000/svg">
<path d="M0.161133 11.7442V3.07534C0.161133 2.33906 0.758008 1.74219 1.49429 1.74219H7.10251C7.83879 1.74219 8.43566 2.33906 8.43566 3.07534V11.62L0.161133 11.7442Z" fill="#225D75"/>
<path d="M7.10242 1.74219H5.8147C6.55098 1.74219 7.14785 2.33906 7.14785 3.07534V11.62H8.43557V3.07534C8.43554 2.33906 7.8387 1.74219 7.10242 1.74219Z" fill="#124E66"/>
<path d="M6.51183 1.74306H2.08521V0.666562C2.08521 0.298438 2.38364 0 2.75177 0H5.84527C6.21339 0 6.51183 0.298438 6.51183 0.666562V1.74306Z" fill="#99CAF7"/>
<path d="M5.84509 0H4.55737C4.9255 0 5.22394 0.298438 5.22394 0.666562V1.74306H6.51165V0.666562C6.51165 0.298438 6.21322 0 5.84509 0Z" fill="#85C1F7"/>
<path d="M0.161133 4.62109V14.6671C0.161133 15.4034 0.758008 16.0002 1.49429 16.0002H7.10251C7.83879 16.0002 8.43563 15.4034 8.43563 14.6671V4.62109H0.161133Z" fill="#8FE069"/>
<path d="M7.14782 11.6211V14.6671C7.14782 15.4034 6.55095 16.0002 5.8147 16.0002H7.10242C7.8387 16.0002 8.43554 15.4034 8.43554 14.6671V11.6211H7.14782Z" fill="#7CD950"/>
<path d="M6.44484 14.4414H2.15159C2.01825 14.4414 1.91016 14.5495 1.91016 14.6828C1.91016 14.8162 2.01825 14.9243 2.15159 14.9243H6.44484C6.57819 14.9243 6.68628 14.8162 6.68628 14.6828C6.68628 14.5495 6.57819 14.4414 6.44484 14.4414Z" fill="#63B83B"/>
<path d="M11.6078 9.135C13.9448 9.135 15.8393 7.24047 15.8393 4.90344C15.8393 2.56641 13.9448 0.671875 11.6078 0.671875C9.27076 0.671875 7.37622 2.56641 7.37622 4.90344C7.37622 7.24047 9.27076 9.135 11.6078 9.135Z" fill="#E3F2FF"/>
<path d="M11.6077 0.671875C11.3888 0.671875 11.1738 0.6885 10.9639 0.720562C12.9953 1.03069 14.5516 2.78531 14.5516 4.90344C14.5516 7.02156 12.9953 8.77619 10.9639 9.08631C11.1738 9.11838 11.3888 9.135 11.6077 9.135C13.9448 9.135 15.8393 7.24047 15.8393 4.90344C15.8393 2.56641 13.9448 0.671875 11.6077 0.671875Z" fill="#CFE9FF"/>
<path d="M11.535 7.97694H10.7129C10.6243 7.97694 10.5428 7.92844 10.5006 7.85053C10.4584 7.77266 10.4622 7.67791 10.5106 7.60369L11.0704 6.74459H10.7381C10.6047 6.74459 10.4967 6.6365 10.4967 6.50316C10.4967 6.36981 10.6048 6.26172 10.7381 6.26172H11.5158C11.6044 6.26172 11.6859 6.31022 11.7281 6.38812C11.7703 6.466 11.7665 6.56075 11.7181 6.63497L11.1584 7.49406H11.535C11.6683 7.49406 11.7764 7.60216 11.7764 7.7355C11.7764 7.86884 11.6683 7.97694 11.535 7.97694Z" fill="#99CAF7"/>
<path d="M11.768 5.57684H9.82129C9.7327 5.57684 9.65123 5.52834 9.60901 5.45044C9.56679 5.37256 9.57063 5.27781 9.61898 5.20359L11.2772 2.65866H9.88113C9.74776 2.65866 9.6397 2.55056 9.6397 2.41722C9.6397 2.28388 9.74779 2.17578 9.88113 2.17578H11.7227C11.8113 2.17578 11.8928 2.22428 11.935 2.30219C11.9772 2.38009 11.9734 2.47481 11.925 2.54903L10.2668 5.09397H11.7681C11.9015 5.09397 12.0095 5.20206 12.0095 5.33541C12.0095 5.46875 11.9014 5.57684 11.768 5.57684Z" fill="#99CAF7"/>
<path d="M13.7405 6.66737H12.4656C12.377 6.66737 12.2955 6.61887 12.2533 6.54097C12.2111 6.46309 12.2149 6.36834 12.2633 6.29413L13.2653 4.75631H12.5048C12.3714 4.75631 12.2633 4.64822 12.2633 4.51487C12.2633 4.38153 12.3714 4.27344 12.5048 4.27344H13.7108C13.7994 4.27344 13.8809 4.32194 13.9231 4.39984C13.9653 4.47772 13.9615 4.5725 13.9131 4.64669L12.9111 6.1845H13.7405C13.8739 6.1845 13.9819 6.29259 13.9819 6.42594C13.982 6.55928 13.8739 6.66737 13.7405 6.66737Z" fill="#99CAF7"/>
<path d="M5.4287 4.64844L4.64013 8.10456H6.9006L3.16823 13.0908L3.95676 9.63469H1.69629L5.4287 4.64844Z" fill="#FFF185"/>
</svg>
