<svg width="16" height="16" viewBox="0 0 16 16" fill="none" xmlns="http://www.w3.org/2000/svg">
<g clip-path="url(#clip0)">
<path d="M2.56085 4.06566C2.64081 4.06566 2.72076 4.03515 2.7818 3.97411C2.78204 3.97399 2.7829 3.97313 2.78363 3.9724C2.90558 3.85204 2.9079 3.65563 2.78827 3.53234C2.66803 3.40856 2.47015 3.40551 2.34625 3.52575C2.34491 3.52709 2.34088 3.531 2.33954 3.53246C2.21783 3.65453 2.21783 3.85216 2.33978 3.97411C2.40094 4.03527 2.4809 4.06566 2.56085 4.06566Z" fill="white"/>
<path d="M15.9326 8.14905C15.7035 6.40808 14.8964 4.76843 13.66 3.5321C12.1481 2.02014 10.1381 1.1875 8.00001 1.1875C6.32911 1.1875 4.72938 1.69617 3.37367 2.65845C3.23292 2.75842 3.19984 2.95349 3.2997 3.09424C3.39955 3.23499 3.59462 3.26807 3.73549 3.16821C3.83632 3.09668 3.93861 3.02808 4.04225 2.96204L4.81959 4.30847C4.48463 4.52759 4.16969 4.78259 3.88014 5.07214C3.59327 5.35901 3.33827 5.67493 3.1183 6.01257L1.77186 5.23535C1.91224 5.01392 2.06447 4.79968 2.22853 4.59375C2.33595 4.45874 2.31373 4.26208 2.17872 4.15454C2.04359 4.047 1.84706 4.06934 1.73951 4.20422C0.836073 5.33862 0.257825 6.70264 0.0673958 8.14893C-0.160998 9.88342 0.195448 11.6737 1.07057 13.1895C1.25648 13.5131 1.55726 13.7448 1.91749 13.842C2.03871 13.8749 2.16176 13.891 2.28407 13.891C2.52516 13.891 2.7632 13.828 2.9778 13.7047C3.3014 13.5187 3.53309 13.218 3.63038 12.8578C3.72767 12.4974 3.67897 12.121 3.49269 11.7969C2.91456 10.7954 2.68873 9.6593 2.83986 8.51135C2.99013 7.37 3.5027 6.33362 4.32216 5.51416C5.30458 4.53174 6.61073 3.99084 8.00001 3.99084C9.38942 3.99084 10.6957 4.53174 11.678 5.51416C12.4974 6.3335 13.0099 7.37 13.1603 8.51135C13.2326 9.06055 13.2184 9.60706 13.1207 10.1376L9.89174 8.91614C9.8329 8.51013 9.64589 8.13428 9.35231 7.8407C8.60695 7.09534 7.39418 7.09534 6.64882 7.8407C5.90346 8.58606 5.90346 9.79895 6.64882 10.5443C7.0215 10.917 7.511 11.1033 8.0005 11.1033C8.49013 11.1033 8.97963 10.917 9.35231 10.5442C9.40504 10.4916 9.45448 10.4358 9.50062 10.3776L12.9069 10.9341C12.8012 11.2305 12.6677 11.519 12.5071 11.7974C12.1234 12.4653 12.3545 13.3209 13.0224 13.7046C13.3458 13.8906 13.7224 13.9393 14.0827 13.842C14.4429 13.7448 14.7437 13.5129 14.9292 13.1901C15.8046 11.6738 16.161 9.88342 15.9326 8.14905ZM2.95106 12.1089C3.05372 12.2877 3.0807 12.4957 3.02699 12.6948C2.97316 12.8938 2.84511 13.0601 2.66639 13.1627C2.48756 13.2655 2.27955 13.2925 2.08046 13.2388C1.88148 13.1849 1.71522 13.0569 1.6122 12.8776C1.00892 11.8326 0.676893 10.6851 0.629163 9.50464H2.1797C2.22963 10.4171 2.49269 11.3151 2.95106 12.1089ZM2.22023 8.42981C2.20045 8.57935 2.18702 8.72937 2.17909 8.87952H0.630384C0.639906 8.6637 0.658582 8.44739 0.687147 8.23059C0.800672 7.36865 1.06361 6.5387 1.45997 5.7771L2.80543 6.55383C2.5066 7.14038 2.30629 7.77588 2.22023 8.42981ZM7.09071 10.1023C6.58912 9.60071 6.58912 8.78442 7.09071 8.28284C7.59242 7.78113 8.40858 7.78125 8.91029 8.28284C9.01552 8.38806 9.10023 8.50903 9.16261 8.6405L8.27113 8.30322C8.05031 8.21973 7.80824 8.23535 7.58949 8.34753C7.35292 8.46875 7.17042 8.6947 7.10158 8.95178C7.03273 9.20874 7.07777 9.49548 7.22206 9.71887C7.35548 9.92529 7.55714 10.0601 7.79017 10.0981L8.73048 10.2517C8.22951 10.5973 7.53627 10.5477 7.09071 10.1023ZM9.40907 9.72925C9.40822 9.72913 9.40736 9.729 9.40651 9.72876L7.891 9.4812C7.81862 9.46936 7.77284 9.41943 7.74708 9.37976C7.69777 9.30334 7.68178 9.20129 7.70534 9.1134C7.72889 9.02551 7.79371 8.94519 7.87465 8.90369C7.9026 8.8894 7.94056 8.87561 7.98305 8.87561C8.00441 8.87561 8.02699 8.87915 8.04994 8.88782L9.48219 9.42957C9.48512 9.43079 9.48817 9.43188 9.49122 9.43298L10.9321 9.97803L9.40907 9.72925ZM8.31251 3.37415V1.81958C9.41041 1.86499 10.4652 2.14954 11.4172 2.64807L10.6397 3.995C9.9225 3.62988 9.13331 3.41724 8.31251 3.37415ZM4.58302 2.64844C5.54005 2.14697 6.59425 1.8645 7.68751 1.81921V3.37415C6.86671 3.41724 6.07753 3.62988 5.36036 3.995L4.58302 2.64844ZM11.1804 4.30847L11.9583 2.9613C12.4087 3.24866 12.8312 3.58716 13.218 3.974C13.6047 4.36072 13.9429 4.78296 14.23 5.23425L12.8818 6.0127C12.6619 5.67493 12.4068 5.35901 12.1199 5.07214C11.8303 4.78259 11.5154 4.52759 11.1804 4.30847ZM13.1946 6.55383L14.5427 5.77551C14.9374 6.53284 15.1983 7.35925 15.313 8.23059C15.3414 8.44727 15.3601 8.6637 15.3698 8.87952H13.8211C13.8131 8.72937 13.7996 8.57935 13.7799 8.42981C13.6939 7.77588 13.4935 7.14038 13.1946 6.55383ZM14.3875 12.8781C14.2848 13.0569 14.1185 13.1849 13.9196 13.2386C13.7206 13.2924 13.5125 13.2655 13.3338 13.1627C12.9647 12.9507 12.8369 12.4779 13.0487 12.1095C13.2456 11.7684 13.4064 11.4082 13.5298 11.0359L13.9107 11.0981C13.9277 11.101 13.9446 11.1023 13.9613 11.1023C14.1005 11.1023 14.2258 11.009 14.263 10.8706C14.3046 10.7155 14.2218 10.5542 14.0717 10.4973L13.7099 10.3606C13.7675 10.0785 13.8046 9.79236 13.8204 9.50464H15.3709C15.3231 10.6852 14.9911 11.8328 14.3875 12.8781Z" fill="white"/>
<path d="M9.87549 12.2656H6.125C5.95239 12.2656 5.8125 12.4055 5.8125 12.5781V13.5782C5.8125 13.7509 5.95239 13.8907 6.125 13.8907H9.87549C10.0481 13.8907 10.1881 13.7509 10.1881 13.5782V12.5781C10.1881 12.4055 10.0481 12.2656 9.87549 12.2656ZM9.56299 13.2657H6.43762V12.8906H9.56299V13.2657Z" fill="white"/>
<path d="M3.38037 8.87891C3.20776 8.87891 3.06787 9.0188 3.06787 9.19141C3.06787 9.36401 3.20776 9.50391 3.38037 9.50391H3.38782C3.56042 9.50391 3.70032 9.36401 3.70032 9.19141C3.70032 9.0188 3.56042 8.87891 3.38782 8.87891H3.38037Z" fill="white"/>
<path d="M5.96509 5.04163L5.96143 5.03516C5.87501 4.88575 5.68384 4.83448 5.53443 4.9209C5.38502 5.00721 5.33375 5.19837 5.42017 5.34791L5.42383 5.35425C5.4817 5.45447 5.5868 5.5105 5.69471 5.5105C5.74781 5.5105 5.80152 5.49695 5.85071 5.46863C6.00025 5.38221 6.0514 5.19117 5.96509 5.04163Z" fill="white"/>
<path d="M10.3062 5.51057C10.4142 5.51057 10.5192 5.45454 10.5771 5.35432L10.5807 5.34785C10.6672 5.19843 10.6159 5.00727 10.4665 4.92085C10.3171 4.83454 10.1259 4.88569 10.0395 5.03523L10.0358 5.0417C9.94953 5.19111 10.0007 5.38227 10.1502 5.46858C10.1994 5.49702 10.2531 5.51057 10.3062 5.51057Z" fill="white"/>
<path d="M12.6195 9.50403C12.7921 9.50403 12.932 9.36414 12.932 9.19153C12.932 9.01892 12.7921 8.87891 12.6195 8.87891H12.6122C12.4396 8.87891 12.2996 9.01892 12.2996 9.19153C12.2996 9.36414 12.4396 9.50403 12.6122 9.50403H12.6195Z" fill="white"/>
<path d="M6.91357 14.2031H6.90625C6.73364 14.2031 6.59375 14.343 6.59375 14.5156C6.59375 14.6882 6.73364 14.8281 6.90625 14.8281H6.91357C7.08618 14.8281 7.2262 14.6882 7.2262 14.5156C7.2262 14.343 7.08618 14.2031 6.91357 14.2031Z" fill="white"/>
<path d="M9.09387 14.2031H7.81128C7.63879 14.2031 7.49878 14.3431 7.49878 14.5157C7.49878 14.6884 7.63879 14.8282 7.81128 14.8282H9.09387C9.26636 14.8282 9.40637 14.6884 9.40637 14.5157C9.40637 14.3431 9.26648 14.2031 9.09387 14.2031Z" fill="white"/>
</g>
<defs>
<clipPath id="clip0">
<rect width="16" height="16" fill="white"/>
</clipPath>
</defs>
</svg>
