<svg width="24" height="18" viewBox="0 0 24 18" fill="none" xmlns="http://www.w3.org/2000/svg">
<path d="M23 9.97974H1C0.447998 9.97974 0 9.53174 0 8.97974C0 8.42773 0.447998 7.97974 1 7.97974H23C23.552 7.97974 24 8.42773 24 8.97974C24 9.53174 23.552 9.97974 23 9.97974Z" fill="#F25822"/>
<path d="M23 2.31201H1C0.447998 2.31201 0 1.86401 0 1.31201C0 0.76001 0.447998 0.312012 1 0.312012H23C23.552 0.312012 24 0.76001 24 1.31201C24 1.86401 23.552 2.31201 23 2.31201Z" fill="#F25822"/>
<path d="M23 17.6455H1C0.447998 17.6455 0 17.1975 0 16.6455C0 16.0935 0.447998 15.6455 1 15.6455H23C23.552 15.6455 24 16.0935 24 16.6455C24 17.1975 23.552 17.6455 23 17.6455Z" fill="#F25822"/>
</svg>
